<svg enable-background="new 0 0 90 85.9" viewBox="0 0 90 85.9" xmlns="http://www.w3.org/2000/svg"><path d="m82.4 42.6c-2.7 0-5.1 1.4-6.4 3.6l-19.6-5c0-.4.1-.8.1-1.2 0-3.5-1.4-6.6-3.7-8.9l3.1-5.3 8.4 2.7c.4 1.5 1.6 2.7 3.2 2.9 2.1.3 4.1-1.2 4.4-3.3s-1.2-4.1-3.3-4.4c-1.2-.2-2.3.2-3.1 1l-7.5-2.4 4.2-7.3c.2.1.5.1.7.2 4.1.6 8-2.3 8.6-6.4s-2.3-8-6.4-8.6c-4.1-.6-8 2.3-8.6 6.4-.4 2.4.5 4.8 2.2 6.4l-9.1 15.8c-1.7-.9-3.6-1.3-5.6-1.3-2.9 0-5.6 1-7.7 2.6l-2.4-2.7 3.4-9.3c1.5-.3 2.8-1.5 3.1-3.1.4-2.1-1-4.2-3.1-4.6s-4.2 1-4.6 3.1c-.2 1.2.1 2.3.8 3.2l-2.7 7.2-7.4-8.5c.6-1 1-2.1 1.1-3.4.4-4.2-2.7-7.8-6.9-8.2s-7.8 2.7-8.2 6.9 2.7 7.8 6.9 8.2c1.5.1 2.9-.2 4.1-.8l3.7 4.3-12.1 2.6c-.4-.4-.9-.8-1.5-1-2-.7-4.3.3-5 2.3s.3 4.3 2.3 5 4.3-.3 5-2.3v-.1l14.4-3 6.2 7.1c-1.4 2-2.1 4.4-2.1 7 0 1.2.2 2.3.5 3.4l-17.8 8.5c-1.1-1.8-3-3.2-5.2-3.5-4.1-.7-8 2.2-8.7 6.3s2.2 8 6.3 8.7 8-2.2 8.7-6.3c.1-.4.1-.8.1-1.3l18.3-8.8c1.9 2.8 4.9 4.8 8.4 5.4l.3 4.2-9.2 3.7c-.4-.3-.9-.6-1.5-.7-2.1-.5-4.2.8-4.7 2.9s.8 4.2 2.9 4.7 4.2-.8 4.7-2.9c0-.1 0-.2 0-.3l8-3.2.7 10.6c-2.2.9-3.9 2.8-4.5 5.3-.9 4.1 1.6 8.2 5.7 9.1s8.2-1.6 9.1-5.7-1.6-8.2-5.7-9.1c-.2-.1-.4-.1-.7-.1l-1.2-18.4c4.3-.7 7.9-3.5 9.6-7.3l3.9 1 .7 9c-1 .7-1.7 1.9-1.7 3.2 0 2.2 1.7 3.9 3.9 3.9 2.1 0 3.9-1.7 3.9-3.9 0-1.5-.9-2.8-2.1-3.4l-.6-7.7 11.4 2.7v.2c0 4.2 3.4 7.6 7.6 7.6s7.6-3.4 7.6-7.6-3.4-7.6-7.6-7.6z"/></svg>